# xmcd
#
# Track frame offsets:
#	150
#	13907
#	28652
#	43890
#	56092
#	69300
#	82925
#	95452
#	109627
#	123385
#	152892
#	165730
#	178657
#	192320
#	205357
#	216125
#	228922
#	242377
#	255935
#	266425
#	277065
#	290660
#	303840
#
# Disc length: 4222 seconds
#
# Revision: 0
# Processed by: cddbd v1.5.1PL0 Copyright (c) Steve Scherf et al.
# Submitted via: EasyCDDAExtractor 8.0.1.1
#
DISCID=44107c17
DTITLE=Various Artist - Bewitching Piano
DYEAR=2001
DGENRE=Acid
TTITLE0=Carmen Cavallaro - Falling In Love With Love
TTITLE1=Carmen Cavallero - Time On My Hands
TTITLE2=Eddie Heywood - Begin The Beguine
TTITLE3=Stanley Black - The Moon Was Yellow
TTITLE4=Bill Snyder - My Silent Love
TTITLE5=Jan August - Misirlou
TTITLE6=Jan August - Zigeuner
TTITLE7=Felix King - It Only Happens When I Dance With You
TTITLE8=Felix King - Dolores
TTITLE9=Semprini - Medeterranean Concerto
TTITLE10=Carmen Cavallero - All The Things You Are
TTITLE11=Bill Snyder - Bewitched
TTITLE12=Bill Mayerl - Fools Rush In
TTITLE13=Bill Maryel - Canadian Capers
TTITLE14=Eddie Heywood - Peg 'O My Heart
TTITLE15=Stanley Black - El Cumbanchero
TTITLE16=Carmen Cavallero - I'm Getting Sentimental Over You
TTITLE17=Bill Mayerl - Marigold
TTITLE18=Jan August - Night And Day
TTITLE19=Jan August - Dancing In The Dark
TTITLE20=Eddie Heywood - Yesterdays
TTITLE21=Eddie Heywood - Lover Man
TTITLE22=Francis Craig - Near You
EXTD=
EXTT0=
EXTT1=
EXTT2=
EXTT3=
EXTT4=
EXTT5=
EXTT6=
EXTT7=
EXTT8=
EXTT9=
EXTT10=
EXTT11=
EXTT12=
EXTT13=
EXTT14=
EXTT15=
EXTT16=
EXTT17=
EXTT18=
EXTT19=
EXTT20=
EXTT21=
EXTT22=
PLAYORDER=
